<svg id="Grupo_3" data-name="Grupo 3" xmlns="http://www.w3.org/2000/svg" width="265.398" height="251.535" viewBox="0 0 265.398 251.535">
  <g id="Isotipo" transform="translate(-84 -47)">
    <g id="Grupo_1" data-name="Grupo 1">
      <path id="Trazado_1" data-name="Trazado 1" d="M132.545,242.614h15.947v20.13a43.449,43.449,0,0,1-17.409,3.809q-11.8,0-18.855-6.886a22.8,22.8,0,0,1-7.056-16.985,23.627,23.627,0,0,1,7.311-17.715q7.311-7.072,18.328-7.073a32.475,32.475,0,0,1,7.616.867,62.422,62.422,0,0,1,9.113,3.179v6.937a33.413,33.413,0,0,0-16.865-4.93,17.9,17.9,0,0,0-13.126,5.3,18.805,18.805,0,0,0,0,26.251q5.338,5.134,13.738,5.134a32.032,32.032,0,0,0,9.759-1.87l.646-.2v-9.9h-9.147Z" fill="#fff"/>
      <path id="Trazado_2" data-name="Trazado 2" d="M191.472,218.506h6.835V245.47a32.054,32.054,0,0,1-.8,8.263,17.919,17.919,0,0,1-1.972,4.642,14.745,14.745,0,0,1-2.874,3.315q-5.645,4.863-14.757,4.863-9.283,0-14.894-4.829a15.457,15.457,0,0,1-2.873-3.349,17.362,17.362,0,0,1-1.938-4.54,33.583,33.583,0,0,1-.765-8.432v-26.9h6.835V245.47q0,6.7,1.53,9.317a10.894,10.894,0,0,0,4.658,4.2,16.171,16.171,0,0,0,7.379,1.581,14.925,14.925,0,0,0,9.861-3.162,9.808,9.808,0,0,0,2.89-4.013q.884-2.312.884-7.923Z" fill="#fff"/>
      <path id="Trazado_3" data-name="Trazado 3" d="M207.794,218.506h6.8v47.5h-6.8Z" fill="#fff"/>
      <path id="Trazado_4" data-name="Trazado 4" d="M225.2,265.941V218.506h16.016q9.69,0,15.335,2.907a21.943,21.943,0,0,1,8.977,8.552,23.777,23.777,0,0,1,3.332,12.309,23.42,23.42,0,0,1-15.131,21.9,23.939,23.939,0,0,1-4.93,1.411,65.776,65.776,0,0,1-8.569.358Zm15.3-41.382H232v35.329h8.705a34.8,34.8,0,0,0,7.923-.7,18.6,18.6,0,0,0,4.709-1.768,16.11,16.11,0,0,0,3.451-2.636,17.593,17.593,0,0,0,5.033-12.887,16.3,16.3,0,0,0-5.169-12.479,16.523,16.523,0,0,0-4.369-2.958,18.281,18.281,0,0,0-4.676-1.53A47.584,47.584,0,0,0,240.505,224.559Z" fill="#fff"/>
      <path id="Trazado_5" data-name="Trazado 5" d="M277.364,218.506H304.3v6.053h-20.13v14.485h19.45v6.087h-19.45v14.757h20.776v6.053H277.364Z" fill="#fff"/>
    </g>
    <path id="Trazado_6" data-name="Trazado 6" d="M304.073,129.779v25.2L204.443,204l-99.735-46.7V132.79l99.682,47.966Z" fill="#fff"/>
    <path id="Trazado_7" data-name="Trazado 7" d="M87.8,116.519l12.889,4.226L96.63,192.378h-4.6Z" fill="#fff"/>
    <path id="Trazado_8" data-name="Trazado 8" d="M91.317,192.378h5.916l4.649,16.482H84.555Z" fill="#fff"/>
    <path id="Trazado_9" data-name="Trazado 9" d="M225.151,164.7,349.4,104.9,220.714,47l110.3,58.849Z" fill="#c4141a"/>
    <path id="Trazado_10" data-name="Trazado 10" d="M308.405,105.849h15L204.391,171.036,84,104.9,200.64,48.057l-98.045,57.792L203.7,157.512Z" fill="#fff"/>
  </g>
  <g id="Grupo_2" data-name="Grupo 2" transform="translate(-78.415 -50)">
    <path id="Trazado_11" data-name="Trazado 11" d="M137.524,294.714v6.821h-3.109v-18.81h5.706a7.564,7.564,0,0,1,5.025,1.508,5.261,5.261,0,0,1,1.783,4.25,5.872,5.872,0,0,1-1.863,4.487,7.07,7.07,0,0,1-5.037,1.744Zm0-9.418v6.873h2.021a4.472,4.472,0,0,0,3.056-.931,3.324,3.324,0,0,0,1.049-2.624q0-3.318-3.856-3.318Z" fill="#fff"/>
    <path id="Trazado_12" data-name="Trazado 12" d="M164.651,301.535h-3.646l-3-5.037a10.463,10.463,0,0,0-.794-1.187,4.771,4.771,0,0,0-.787-.807,2.668,2.668,0,0,0-.872-.459,3.643,3.643,0,0,0-1.063-.145h-1.259v7.635h-3.109v-18.81h6.191a8.948,8.948,0,0,1,2.44.314,5.668,5.668,0,0,1,1.941.951,4.44,4.44,0,0,1,1.293,1.587,5,5,0,0,1,.465,2.224,5.437,5.437,0,0,1-.3,1.83,4.7,4.7,0,0,1-.84,1.482,5.135,5.135,0,0,1-1.31,1.109,6.569,6.569,0,0,1-1.726.708v.052a4.876,4.876,0,0,1,.892.637q.381.348.721.715a8.319,8.319,0,0,1,.676.833q.336.467.741,1.082Zm-11.425-16.279v6.113h2.6a3.837,3.837,0,0,0,1.331-.223,3.048,3.048,0,0,0,1.057-.643,2.9,2.9,0,0,0,.7-1.023,3.512,3.512,0,0,0,.249-1.351,2.686,2.686,0,0,0-.852-2.112,3.572,3.572,0,0,0-2.454-.761Z" fill="#fff"/>
    <path id="Trazado_13" data-name="Trazado 13" d="M177.4,301.535h-10.56v-18.81h10.14v2.649h-7.017V290.7h6.466v2.637h-6.466V298.9H177.4Z" fill="#fff"/>
    <path id="Trazado_14" data-name="Trazado 14" d="M208.334,301.535h-3.1V289.362q0-1.5.184-3.66h-.053a12.688,12.688,0,0,1-.512,1.771l-5.614,14.062h-2.151l-5.627-13.957a12.792,12.792,0,0,1-.5-1.876h-.053q.105,1.128.1,3.687v12.146h-2.884v-18.81h4.394l4.945,12.527a18.831,18.831,0,0,1,.735,2.151h.065q.484-1.482.786-2.2l5.038-12.474h4.238Z" fill="#fff"/>
    <path id="Trazado_15" data-name="Trazado 15" d="M216.164,301.535h-3.213v-18.81h3.213Z" fill="#fff"/>
    <path id="Trazado_16" data-name="Trazado 16" d="M231.211,301.535H220.795v-18.81h3.122V298.9h7.294Z" fill="#fff"/>
    <path id="Trazado_17" data-name="Trazado 17" d="M237.127,301.535h-3.215v-18.81h3.215Z" fill="#fff"/>
    <path id="Trazado_18" data-name="Trazado 18" d="M253.825,285.374h-5.4v16.161H245.3V285.374h-5.392v-2.649h13.918Z" fill="#fff"/>
    <path id="Trazado_19" data-name="Trazado 19" d="M270.078,301.535h-3.424l-1.692-4.788h-7.4l-1.626,4.788h-3.411l7.044-18.81h3.516Zm-5.943-7.333-2.61-7.5a8.9,8.9,0,0,1-.25-1.18h-.053a7.773,7.773,0,0,1-.261,1.18l-2.584,7.5Z" fill="#fff"/>
    <path id="Trazado_20" data-name="Trazado 20" d="M287.2,301.535H283.55l-3-5.037a10.461,10.461,0,0,0-.794-1.187,4.773,4.773,0,0,0-.787-.807,2.668,2.668,0,0,0-.872-.459,3.643,3.643,0,0,0-1.063-.145h-1.259v7.635h-3.109v-18.81h6.191a8.948,8.948,0,0,1,2.44.314,5.668,5.668,0,0,1,1.941.951,4.441,4.441,0,0,1,1.293,1.587,5,5,0,0,1,.465,2.224,5.437,5.437,0,0,1-.3,1.83,4.724,4.724,0,0,1-.84,1.482,5.135,5.135,0,0,1-1.31,1.109,6.569,6.569,0,0,1-1.726.708v.052a4.877,4.877,0,0,1,.892.637q.381.348.721.715a8.317,8.317,0,0,1,.676.833c.224.311.47.671.741,1.082Zm-11.425-16.279v6.113h2.6a3.837,3.837,0,0,0,1.331-.223,3.049,3.049,0,0,0,1.057-.643,2.9,2.9,0,0,0,.695-1.023,3.512,3.512,0,0,0,.249-1.351,2.684,2.684,0,0,0-.853-2.112,3.568,3.568,0,0,0-2.453-.761Z" fill="#fff"/>
  </g>
</svg>
